<svg width="16.000000" height="10.000000" viewBox="0 0 16 10" fill="none" xmlns="http://www.w3.org/2000/svg" xmlns:xlink="http://www.w3.org/1999/xlink">
	<desc>
			Created with Pixso.
	</desc>
	<defs/>
	<path id="Vector" d="M14.54 3L13.09 3L13.09 4.45L11.63 4.45L11.63 5.9L13.09 5.9L13.09 7.36L14.54 7.36L14.54 5.9L15.99 5.9L15.99 4.45L14.54 4.45L14.54 3Z" fill="#FFFFFF" fill-opacity="1.000000" fill-rule="nonzero"/>
	<path id="Vector" d="M4.99 10C7.88 10 9.8 7.97 9.8 5.11C9.8 4.78 9.76 4.53 9.72 4.28L5 4.28L5 6L7.83 6C7.72 6.73 6.97 8.15 5 8.15C3.29 8.15 1.9 6.74 1.9 5C1.9 3.25 3.29 1.84 5 1.84C5.97 1.84 6.62 2.25 6.99 2.61L8.34 1.3C7.47 0.49 6.35 0 4.99 0C2.23 0 -0.01 2.23 -0.01 5C-0.01 7.76 2.23 10 4.99 10Z" fill="#FFFFFF" fill-opacity="1.000000" fill-rule="nonzero"/>
</svg>
