<svg width="10.000000" height="10.000000" viewBox="0 0 10 10" fill="none" xmlns="http://www.w3.org/2000/svg" xmlns:xlink="http://www.w3.org/1999/xlink">
	<desc>
			Created with Pixso.
	</desc>
	<defs/>
	<path id="Vector" d="M5 3.41C4.12 3.41 3.41 4.12 3.41 5C3.41 5.87 4.12 6.58 5 6.58C5.87 6.58 6.58 5.87 6.58 5C6.58 4.12 5.87 3.41 5 3.41Z" fill="#FFFFFF" fill-opacity="1.000000" fill-rule="nonzero"/>
	<path id="Vector" d="M8.13 0L1.86 0C0.83 0 0 0.83 0 1.86L0 8.13C0 9.16 0.83 10 1.86 10L8.13 10C9.16 10 10 9.16 10 8.13L10 1.86C10 0.83 9.16 0 8.13 0ZM5 7.17C3.8 7.17 2.82 6.19 2.82 5C2.82 3.8 3.8 2.82 5 2.82C6.19 2.82 7.17 3.8 7.17 5C7.17 6.19 6.19 7.17 5 7.17ZM8.03 2.38C7.97 2.43 7.9 2.46 7.82 2.46C7.74 2.46 7.67 2.43 7.61 2.38C7.56 2.32 7.53 2.25 7.53 2.17C7.53 2.09 7.56 2.02 7.61 1.96C7.67 1.91 7.74 1.88 7.82 1.88C7.9 1.88 7.97 1.91 8.03 1.96C8.08 2.02 8.11 2.09 8.11 2.17C8.11 2.25 8.08 2.32 8.03 2.38Z" fill="#FFFFFF" fill-opacity="1.000000" fill-rule="nonzero"/>
</svg>
