<svg width="36.000000" height="32.000000" viewBox="0 0 36 32" fill="none" xmlns="http://www.w3.org/2000/svg" xmlns:xlink="http://www.w3.org/1999/xlink">
	<desc>
			Created with Pixso.
	</desc>
	<defs/>
	<path id="Vector" d="M33.51 4.62C30.92 0.17 25.21 -1.33 20.77 1.27C19.7 1.89 18.76 2.73 18.01 3.72L17.58 4.3L17.15 3.72C15.39 1.38 12.63 0 9.7 0L9.48 0C6.29 0 3.33 1.62 1.62 4.31C0.56 5.98 -0.01 7.91 1.52e-5 9.88L1.52e-5 11.58C-0.01 16.62 2.53 21.33 6.75 24.09L7.75 24.74L11.87 27.44L17.26 30.97C17.46 31.1 17.71 31.1 17.91 30.97L28.47 23.97C32.66 21.21 35.18 16.52 35.17 11.5L35.17 10.75C35.17 8.59 34.6 6.48 33.51 4.62ZM14.13 27.23L14.34 27.66L9.63 24.57L8.4 23.76L8.06 23.54L11.04 19.08C11.1 18.98 11.13 18.87 11.13 18.76L11.13 16.92C11.13 16.88 11.13 16.84 11.14 16.81C11.17 16.08 11.44 15.39 11.92 14.84L12.01 14.73L12.32 15.97C12.39 16.23 12.62 16.41 12.89 16.41L14.3 16.41C14.69 16.41 15.05 16.61 15.27 16.93C15.67 17.53 16.29 17.96 17 18.11L17 18.76C16.99 19.4 16.47 19.93 15.82 19.93C15.5 19.93 15.24 20.19 15.24 20.51L15.24 22.65C15.24 23.05 15.12 23.45 14.89 23.79L14.16 24.88C14.1 24.98 14.06 25.09 14.06 25.2L14.06 26.96C14.06 27.05 14.09 27.14 14.13 27.23L14.13 27.23ZM16.41 29.01L15.82 28.63L15.82 28.14C15.82 28.04 15.8 27.95 15.76 27.87L15.75 27.86L16.41 27.21L16.41 29.01ZM21.1 27.45L19.93 28.22L19.93 24.91L21.1 24.03L21.1 27.45ZM22.19 20.11C22.15 20.96 21.83 21.78 21.28 22.43L18.99 24.15C18.84 24.26 18.75 24.43 18.75 24.62L18.75 29L17.58 29.78L17.58 25.79C17.58 25.47 17.32 25.2 17 25.2C16.84 25.2 16.69 25.27 16.58 25.38L15.24 26.72L15.24 25.38L15.87 24.44C16.22 23.91 16.41 23.28 16.41 22.65L16.41 21.03C17.44 20.76 18.17 19.82 18.17 18.76L18.17 17.58C18.17 17.26 17.91 17 17.58 17C17.05 17 16.54 16.73 16.25 16.28C16 15.92 15.67 15.63 15.27 15.45L16.17 14.55L16.15 14.59L18.18 15.61C19.24 16.14 20.4 16.41 21.58 16.41L21.84 16.41L22.13 18.63C22.2 19.12 22.22 19.61 22.19 20.11ZM18.17 10.55L18.17 12.45C18.17 12.7 17.97 12.89 17.73 12.89L17 12.89L17 11.85C16.99 10.42 17.56 9.05 18.57 8.04C18.84 7.77 19.21 7.62 19.6 7.62L20.87 7.62C21.24 7.62 21.59 7.76 21.85 8.02L23.03 9.2C23.14 9.31 23.29 9.38 23.44 9.38L24.62 9.38L24.62 10.26C24.62 10.74 24.22 11.13 23.74 11.13L22.27 11.13C21.95 11.13 21.69 11.4 21.69 11.72L21.69 15.24L21.58 15.24C20.59 15.24 19.6 15 18.71 14.56L17.72 14.07L17.73 14.07C18.62 14.06 19.34 13.34 19.34 12.45L19.34 10.55L18.17 10.55ZM34 11.5C34 16.13 31.68 20.45 27.82 22.99L22.27 26.67L22.27 23.07C22.93 22.24 23.31 21.22 23.37 20.17C23.39 19.6 23.37 19.04 23.3 18.48L22.86 15.2L22.86 12.31L23.74 12.31C24.87 12.31 25.79 11.39 25.79 10.26L25.79 8.79C25.79 8.47 25.53 8.2 25.2 8.2L23.69 8.2L22.68 7.19C22.2 6.71 21.55 6.44 20.87 6.45L19.6 6.45C18.9 6.45 18.24 6.72 17.74 7.21C16.51 8.44 15.82 10.11 15.82 11.85L15.82 13.24L13.82 15.24L13.35 15.24L12.87 13.34C12.8 13.02 12.48 12.83 12.16 12.91C12.04 12.94 11.94 13.01 11.86 13.1L11.03 14.08C10.38 14.83 10.01 15.78 9.96 16.77C9.96 16.82 9.96 16.87 9.96 16.92L9.96 18.58L8.32 21.03C7.33 20.29 6.44 19.43 5.67 18.46L5.14 17.8C4.94 17.55 4.57 17.51 4.32 17.71C4.07 17.91 4.02 18.28 4.23 18.54L4.75 19.2C5.6 20.26 6.58 21.2 7.67 22.01L7.08 22.89C3.37 20.32 1.16 16.09 1.17 11.58L1.17 9.88C1.17 8.13 1.67 6.42 2.61 4.94C4.1 2.59 6.69 1.17 9.48 1.17L9.7 1.17C12.26 1.18 14.67 2.38 16.21 4.43L17.11 5.62C17.31 5.88 17.67 5.94 17.93 5.74C17.98 5.71 18.02 5.67 18.05 5.62L18.95 4.43C21.65 0.83 26.75 0.1 30.35 2.8C31.22 3.45 31.95 4.27 32.5 5.21C33.48 6.89 34 8.8 34 10.75L34 11.5Z" fill="#3DA9FC" fill-opacity="1.000000" fill-rule="nonzero"/>
	<path id="Vector" d="M19.93 8.79L21.1 8.79L21.1 9.96L19.93 9.96L19.93 8.79Z" fill="#3DA9FC" fill-opacity="1.000000" fill-rule="nonzero"/>
	<path id="Vector" d="M13.48 17.58L14.65 17.58L14.65 18.76L13.48 18.76L13.48 17.58Z" fill="#3DA9FC" fill-opacity="1.000000" fill-rule="nonzero"/>
	<path id="Vector" d="M30.85 17.71C30.59 17.51 30.22 17.55 30.02 17.8C30.02 17.8 30.02 17.8 30.02 17.8L29.49 18.46C28.34 19.91 26.92 21.12 25.32 22.03L23.74 22.94C23.46 23.1 23.36 23.45 23.52 23.74C23.68 24.02 24.04 24.12 24.32 23.96C24.32 23.96 24.32 23.95 24.32 23.95L25.9 23.05C27.63 22.06 29.16 20.75 30.41 19.2L30.94 18.54C31.14 18.28 31.1 17.91 30.85 17.71Z" fill="#094067" fill-opacity="1.000000" fill-rule="nonzero"/>
	<path id="Vector" d="M32.24 11.72C31.91 11.72 31.65 11.98 31.65 12.31L31.65 12.5C31.65 13.47 31.49 14.44 31.19 15.37L31.1 15.64C30.99 15.95 31.15 16.28 31.46 16.38C31.76 16.49 32.1 16.33 32.2 16.02C32.2 16.02 32.21 16.01 32.21 16.01L32.3 15.74C32.65 14.69 32.82 13.6 32.82 12.5L32.82 12.31C32.82 11.98 32.56 11.72 32.24 11.72Z" fill="#094067" fill-opacity="1.000000" fill-rule="nonzero"/>
	<path id="Vector" d="M32.24 8.79C31.91 8.79 31.65 9.05 31.65 9.38L31.65 9.96C31.65 10.29 31.91 10.55 32.24 10.55C32.56 10.55 32.82 10.29 32.82 9.96L32.82 9.38C32.82 9.05 32.56 8.79 32.24 8.79Z" fill="#094067" fill-opacity="1.000000" fill-rule="nonzero"/>
	<path id="Vector" d="M3.98 15.37C3.67 14.44 3.51 13.47 3.51 12.5L3.51 12.31C3.51 11.98 3.25 11.72 2.93 11.72C2.6 11.72 2.34 11.98 2.34 12.31L2.34 12.5C2.34 13.6 2.52 14.69 2.87 15.74L2.96 16.01C3.06 16.32 3.39 16.49 3.69 16.39C4 16.29 4.17 15.96 4.07 15.65C4.07 15.65 4.07 15.64 4.07 15.64L3.98 15.37Z" fill="#094067" fill-opacity="1.000000" fill-rule="nonzero"/>
</svg>
