<svg width="19.000000" height="17.000000" viewBox="0 0 19 17" fill="none" xmlns="http://www.w3.org/2000/svg" xmlns:xlink="http://www.w3.org/1999/xlink">
	<desc>
			Created with Pixso.
	</desc>
	<defs/>
	<path id="Star 1" d="M9.19 -0.4L11.19 5.76C11.22 5.85 11.3 5.9 11.39 5.9L17.87 5.9C18.07 5.9 18.15 6.16 17.99 6.28L12.75 10.09C12.68 10.14 12.65 10.23 12.67 10.32L14.68 16.48C14.74 16.67 14.52 16.83 14.36 16.71L9.12 12.9C9.04 12.85 8.95 12.85 8.87 12.9L3.63 16.71C3.47 16.83 3.25 16.67 3.31 16.48L5.32 10.32C5.34 10.23 5.31 10.14 5.24 10.09L0 6.28C-0.16 6.16 -0.08 5.9 0.12 5.9L6.6 5.9C6.69 5.9 6.77 5.85 6.8 5.76L8.8 -0.4C8.86 -0.59 9.13 -0.59 9.19 -0.4Z" fill="#EAC708" fill-opacity="1.000000" fill-rule="evenodd"/>
</svg>
